<?xml version="1.0" encoding="UTF-8" standalone="no"?>
<!-- Created with Inkscape (http://www.inkscape.org/) -->

<svg
   xmlns:dc="http://purl.org/dc/elements/1.1/"
   xmlns:cc="http://creativecommons.org/ns#"
   xmlns:rdf="http://www.w3.org/1999/02/22-rdf-syntax-ns#"
   xmlns:svg="http://www.w3.org/2000/svg"
   xmlns="http://www.w3.org/2000/svg"
   xmlns:sodipodi="http://sodipodi.sourceforge.net/DTD/sodipodi-0.dtd"
   xmlns:inkscape="http://www.inkscape.org/namespaces/inkscape"
   width="797.46777"
   height="259.44928"
   viewBox="0 0 210.99668 68.645956"
   version="1.1"
   id="svg8"
   inkscape:version="0.92.4 (5da689c313, 2019-01-14)"
   sodipodi:docname="logo.svg">
  <defs
     id="defs2" />
  <sodipodi:namedview
     id="base"
     pagecolor="#ffffff"
     bordercolor="#666666"
     borderopacity="1.0"
     inkscape:pageopacity="0.0"
     inkscape:pageshadow="2"
     inkscape:zoom="0.7"
     inkscape:cx="422.59316"
     inkscape:cy="249.81991"
     inkscape:document-units="mm"
     inkscape:current-layer="layer1"
     showgrid="false"
     units="px"
     fit-margin-left="100"
     fit-margin-right="100"
     fit-margin-top="20"
     fit-margin-bottom="20"
     inkscape:window-width="1920"
     inkscape:window-height="1017"
     inkscape:window-x="-8"
     inkscape:window-y="760"
     inkscape:window-maximized="1" />
  <metadata
     id="metadata5">
    <rdf:RDF>
      <cc:Work
         rdf:about="">
        <dc:format>image/svg+xml</dc:format>
        <dc:type
           rdf:resource="http://purl.org/dc/dcmitype/StillImage" />
        <dc:title></dc:title>
      </cc:Work>
    </rdf:RDF>
  </metadata>
  <g
     inkscape:label="Layer 1"
     inkscape:groupmode="layer"
     id="layer1"
     transform="translate(-23.122215,-219.91381)">
    <flowRoot
       xml:space="preserve"
       id="flowRoot3713"
       style="font-style:italic;font-variant:normal;font-weight:bold;font-stretch:normal;font-size:32px;line-height:1.25;font-family:'Microsoft Yi Baiti';-inkscape-font-specification:'Microsoft Yi Baiti Bold Italic';letter-spacing:0px;word-spacing:0px;fill:#000000;fill-opacity:1;stroke:none"><flowRegion
         id="flowRegion3715"
         style="font-style:italic;font-variant:normal;font-weight:bold;font-stretch:normal;font-family:'Microsoft Yi Baiti';-inkscape-font-specification:'Microsoft Yi Baiti Bold Italic'"><rect
           id="rect3717"
           width="747.51288"
           height="165.66502"
           x="26.263966"
           y="15.142084"
           style="font-style:italic;font-variant:normal;font-weight:bold;font-stretch:normal;font-family:'Microsoft Yi Baiti';-inkscape-font-specification:'Microsoft Yi Baiti Bold Italic'" /></flowRegion><flowPara
         id="flowPara3719"></flowPara></flowRoot>    <path
       inkscape:connector-curvature="0"
       id="path6958"
       style="font-style:normal;font-variant:normal;font-weight:normal;font-stretch:normal;font-size:192px;line-height:1.25;font-family:'Microsoft Yi Baiti';-inkscape-font-specification:'Microsoft Yi Baiti';letter-spacing:0px;word-spacing:0px;fill:#000000;fill-opacity:1;stroke:none;stroke-width:0.26458332"
       d="m 100.18188,271.57219 h -1.984379 v -12.55117 q 0,-2.75332 -0.868164,-3.96875 -0.843359,-1.21543 -3.001367,-1.21543 -1.5875,0 -3.100586,0.99219 -1.488281,0.96738 -2.902148,2.75332 v 13.98984 h -1.984375 v -12.55117 q 0,-1.36426 -0.198437,-2.35645 -0.173633,-0.99218 -0.620117,-1.6123 -0.446485,-0.62012 -1.190625,-0.91777 -0.719336,-0.29766 -1.785938,-0.29766 -1.562695,0 -2.976562,0.99219 -1.413868,0.96738 -2.852539,2.75332 v 13.98984 h -1.984375 v -19.22363 h 1.984375 v 2.85254 q 0.992187,-1.11621 1.860351,-1.76113 0.892969,-0.66973 1.661914,-1.017 0.79375,-0.34726 1.488281,-0.44648 0.719336,-0.12402 1.364258,-0.12402 1.860352,0 3.175,0.86816 1.314649,0.86816 1.909961,2.6541 0.744141,-1.0418 1.562695,-1.71152 0.843359,-0.69453 1.686719,-1.09141 0.868164,-0.39687 1.736328,-0.5457 0.868164,-0.17363 1.686718,-0.17363 5.333012,0 5.333012,6.99492 z" />
    <path
       inkscape:connector-curvature="0"
       id="path6960"
       style="font-style:normal;font-variant:normal;font-weight:normal;font-stretch:normal;font-size:192px;line-height:1.25;font-family:'Microsoft Yi Baiti';-inkscape-font-specification:'Microsoft Yi Baiti';letter-spacing:0px;word-spacing:0px;fill:#000000;fill-opacity:1;stroke:none;stroke-width:0.26458332"
       d="m 113.79966,251.85247 q 1.95957,0 3.54707,0.69453 1.5875,0.66972 2.70371,1.98437 1.11621,1.28985 1.71153,3.175 0.59531,1.86035 0.59531,4.2168 0,2.40605 -0.62012,4.29121 -0.59531,1.88516 -1.71152,3.1998 -1.11621,1.28985 -2.70371,1.98438 -1.5875,0.66973 -3.52227,0.66973 -1.93476,0 -3.52226,-0.66973 -1.5627,-0.66973 -2.67891,-1.95957 -1.11621,-1.31465 -1.73633,-3.19981 -0.62012,-1.88515 -0.62012,-4.31601 0,-2.38125 0.59532,-4.2416 0.62011,-1.88516 1.73632,-3.175 1.11622,-1.28985 2.70372,-1.95957 1.5875,-0.69453 3.52226,-0.69453 z m 0,18.23144 q 1.46348,0 2.6541,-0.49609 1.21543,-0.5209 2.0836,-1.53789 0.86816,-1.0418 1.33945,-2.55489 0.49609,-1.53789 0.49609,-3.57187 0,-2.00918 -0.49609,-3.52227 -0.47129,-1.53789 -1.33945,-2.53008 -0.86817,-1.01699 -2.0836,-1.51308 -1.19062,-0.5209 -2.6541,-0.5209 -1.48828,0 -2.70371,0.5209 -1.19062,0.49609 -2.05879,1.51308 -0.86816,0.99219 -1.33945,2.53008 -0.47129,1.51309 -0.47129,3.52227 0,2.03398 0.47129,3.57187 0.47129,1.51309 1.33945,2.55489 0.86817,1.01699 2.05879,1.53789 1.21543,0.49609 2.70371,0.49609 z" />
    <path
       inkscape:connector-curvature="0"
       id="path6962"
       style="font-style:normal;font-variant:normal;font-weight:normal;font-stretch:normal;font-size:192px;line-height:1.25;font-family:'Microsoft Yi Baiti';-inkscape-font-specification:'Microsoft Yi Baiti';letter-spacing:0px;word-spacing:0px;fill:#000000;fill-opacity:1;stroke:none;stroke-width:0.26458332"
       d="m 156.14122,269.09172 q -1.01699,0.89297 -1.98437,1.48828 -0.96739,0.57051 -1.90996,0.91778 -0.91778,0.32246 -1.83555,0.44648 -0.91777,0.12403 -1.86035,0.12403 -1.26504,0 -2.35645,-0.39688 -1.0914,-0.37207 -1.88515,-1.0666 -0.79375,-0.71934 -1.26504,-1.71152 -0.44649,-1.017 -0.44649,-2.23243 0,-3.29902 2.80293,-5.13457 2.82774,-1.83554 8.4584,-1.83554 h 2.28203 q 0,-1.26504 -0.14883,-2.33164 -0.14882,-1.06661 -0.69453,-1.83555 -0.5457,-0.79375 -1.6123,-1.24024 -1.0666,-0.44648 -2.90215,-0.44648 -2.70371,0 -4.06797,0.84336 -1.33945,0.84336 -1.5875,2.55488 h -1.95957 q 0.29766,-2.72851 2.1332,-4.04316 1.83555,-1.33945 5.45704,-1.33945 2.00917,0 3.39824,0.49609 1.41386,0.49609 2.28203,1.43867 0.89297,0.91777 1.28984,2.25723 0.39688,1.31465 0.39688,2.97656 v 12.55117 h -1.98438 z m 0,-7.4166 h -3.00136 q -4.31602,0 -6.44922,1.24024 -2.1084,1.24023 -2.1084,3.54707 0,1.71152 1.33945,2.6789 1.33945,0.94258 3.67109,0.94258 1.017,0 1.95958,-0.29766 0.96738,-0.32246 1.81074,-0.81855 0.84336,-0.49609 1.53789,-1.09141 0.71933,-0.62011 1.24023,-1.19062 z" />
    <path
       inkscape:connector-curvature="0"
       id="path6964"
       style="font-style:normal;font-variant:normal;font-weight:normal;font-stretch:normal;font-size:192px;line-height:1.25;font-family:'Microsoft Yi Baiti';-inkscape-font-specification:'Microsoft Yi Baiti';letter-spacing:0px;word-spacing:0px;fill:#000000;fill-opacity:1;stroke:none;stroke-width:0.26458332"
       d="m 166.88165,271.57219 h -1.98437 v -27.16113 h 1.98437 z" />
    <path
       inkscape:connector-curvature="0"
       id="path6966"
       style="font-style:normal;font-variant:normal;font-weight:normal;font-stretch:normal;font-size:192px;line-height:1.25;font-family:'Microsoft Yi Baiti';-inkscape-font-specification:'Microsoft Yi Baiti';letter-spacing:0px;word-spacing:0px;fill:#000000;fill-opacity:1;stroke:none;stroke-width:0.26458332"
       d="m 177.99415,271.57219 h -3.62148 v -3.62148 h 3.62148 z" />
    <path
       inkscape:connector-curvature="0"
       id="path6968"
       style="font-style:normal;font-variant:normal;font-weight:normal;font-stretch:normal;font-size:192px;line-height:1.25;font-family:'Microsoft Yi Baiti';-inkscape-font-specification:'Microsoft Yi Baiti';letter-spacing:0px;word-spacing:0px;fill:#000000;fill-opacity:1;stroke:none;stroke-width:0.26458332"
       d="m 187.64318,272.39075 q 0,2.05879 -0.32247,3.32382 -0.32246,1.28985 -0.89296,2.00918 -0.57051,0.71934 -1.38907,0.96739 -0.81855,0.27285 -1.81074,0.27285 -0.84336,0 -1.53789,-0.0744 v -2.10839 q 0.14883,0.0248 0.29766,0.0248 0.12402,0 0.24804,0 1.0418,0 1.71153,-0.14883 0.66972,-0.14883 1.04179,-0.62012 0.37207,-0.47129 0.5209,-1.38906 0.14883,-0.89297 0.14883,-2.38125 v -19.96776 h 1.98438 z m 0,-24.87911 h -1.98438 v -3.10058 h 1.98438 z" />
    <path
       inkscape:connector-curvature="0"
       id="path6970"
       style="font-style:normal;font-variant:normal;font-weight:normal;font-stretch:normal;font-size:192px;line-height:1.25;font-family:'Microsoft Yi Baiti';-inkscape-font-specification:'Microsoft Yi Baiti';letter-spacing:0px;word-spacing:0px;fill:#000000;fill-opacity:1;stroke:none;stroke-width:0.26458332"
       d="m 200.44239,272.06829 q -7.06933,0 -7.71425,-5.68028 h 2.00918 q 0.22324,1.73633 1.5875,2.72852 1.38906,0.96738 4.09277,0.96738 1.31465,0 2.30683,-0.27285 0.99219,-0.29766 1.63711,-0.76895 0.66973,-0.49609 0.99219,-1.16582 0.32246,-0.66972 0.32246,-1.43867 0,-0.76894 -0.27285,-1.31465 -0.24805,-0.5457 -0.94258,-0.99218 -0.66972,-0.44649 -1.86035,-0.84336 -1.16582,-0.42168 -3.00137,-0.89297 -1.56269,-0.39688 -2.77812,-0.81856 -1.21543,-0.42168 -2.05879,-1.04179 -0.81855,-0.62012 -1.24023,-1.48829 -0.42168,-0.89296 -0.42168,-2.20761 0,-1.14102 0.47129,-2.05879 0.49609,-0.94258 1.36425,-1.5875 0.86817,-0.64492 2.1084,-0.99219 1.24024,-0.34726 2.75332,-0.34726 3.42305,0 5.18418,1.16582 1.78594,1.14101 1.98438,3.62148 h -2.00918 q -0.19844,-1.43867 -1.38907,-2.1084 -1.16582,-0.69453 -3.49746,-0.69453 -1.0914,0 -2.00918,0.19844 -0.91777,0.19844 -1.5875,0.59531 -0.64492,0.37207 -1.01699,0.96738 -0.37207,0.57051 -0.37207,1.31465 0,0.42168 0.14883,0.86817 0.14883,0.44648 0.74414,0.91777 0.62012,0.47129 1.83555,0.96738 1.21543,0.47129 3.32382,0.99219 1.66192,0.42168 2.87735,0.89297 1.24023,0.44648 2.03398,1.0914 0.81856,0.62012 1.21543,1.46348 0.39688,0.84336 0.39688,1.98438 0,1.26503 -0.5209,2.38125 -0.49609,1.0914 -1.43867,1.88515 -0.91778,0.79375 -2.25723,1.24024 -1.33945,0.47129 -3.00137,0.47129 z" />
    <path
       d="m 135.54242,231.00687 v 33.25381 c -1.36204,-1.31199 -4.00031,-1.34416 -6.324,0.0358 -2.64187,1.56938 -3.87521,4.36854 -2.75626,6.24894 1.11894,1.88398 4.16476,2.13779 6.80662,0.5684 1.97335,-1.17256 3.15666,-3.02794 3.16737,-4.67955 v 0 -35.42736 z m -3.50698,38.18004 c -1.99837,1.18687 -3.56061,2.0949 -4.40786,0.66851 -0.84725,-1.4264 0.54696,-2.56679 2.54533,-3.75365 1.99837,-1.18688 3.84661,-1.97335 4.69386,-0.54697 0.84725,1.42639 -0.83296,2.44523 -2.83133,3.63211 z"
       id="path6800"
       inkscape:connector-curvature="0"
       style="stroke-width:0.35749099" />
    <path
       d="m 59.929703,253.22469 c -0.0349,0.006 -0.0699,0.0175 -0.10782,0.0233 -0.36135,-2.17101 -0.71688,-4.26042 -1.04617,-6.15461 1.46872,-1.8388 2.85583,-3.97484 3.77378,-6.74034 2.65184,-7.99632 -1.27347,-15.14756 -2.27884,-15.14756 -3.28129,0 -4.75583,8.68115 -3.04816,18.09081 -3.13559,4.25169 -6.74618,8.48591 -7.431,12.65891 -1.19478,7.29403 2.70722,14.91152 11.16106,13.25631 0.13405,-0.0262 0.2681,-0.0554 0.39633,-0.0875 0.47499,3.12394 0.86257,5.65921 1.08405,6.99097 0.54493,3.2638 -0.98207,5.94479 -3.59311,6.08467 -0.94709,0.0496 -1.83881,-0.33805 -2.44202,-1.2997 1.40168,0.53037 2.86165,-0.66442 2.98695,-3.30169 0.0816,-1.71642 -0.45751,-3.43866 -2.6431,-3.70093 -1.69601,-0.20399 -3.59018,1.45707 -3.30169,4.43237 0.23605,2.45368 1.70767,4.84909 5.23958,4.93651 3.53191,0.0875 5.66504,-2.86165 4.78498,-7.71657 -0.20399,-1.12194 -0.60614,-3.59311 -1.1132,-6.74909 7.43683,-3.0336 5.31244,-16.96597 -2.42162,-15.57594 z m 0.58864,-23.23715 c 0.52746,0 1.57363,0.7839 1.57363,2.73344 0,3.18805 -1.86503,6.39066 -4.14969,9.58452 -1.15399,-8.27316 1.39585,-12.31796 2.57606,-12.31796 z m -0.0204,38.27106 c -9.0454,1.81258 -9.56703,-7.40185 -8.08665,-12.41412 0.85674,-2.89954 3.26963,-5.07639 5.64172,-7.87394 0.27975,1.66105 0.58282,3.53483 0.89463,5.51351 -5.95062,2.01948 -5.99724,11.59816 -0.50122,12.49863 -2.60813,-2.04571 -3.19388,-7.4339 0.4546,-8.65492 0.20981,-0.0699 0.41671,-0.11656 0.62362,-0.15153 0.57991,3.74172 1.16272,7.5971 1.66687,10.91044 -0.21857,0.0641 -0.44878,0.12239 -0.69357,0.17193 z m 1.6698,-0.56826 c -0.50706,-3.15306 -1.10154,-6.85982 -1.70767,-10.55782 4.23129,0.36718 6.59754,8.10124 1.70767,10.55782 z"
       id="path6734"
       inkscape:connector-curvature="0"
       style="stroke-width:0.29141137" />
  </g>
</svg>
